<svg width="96" height="132" viewBox="0 0 96 132" fill="none" xmlns="http://www.w3.org/2000/svg">
<g clip-path="url(#clip0)">
<path d="M0.0499878 105.75L16.18 2.52C16.38 1.25 17.36 0.260003 18.62 0.040003C19.88 -0.179997 21.14 0.440003 21.75 1.57L38.43 32.69L45.08 20.03C45.59 19.05 46.61 18.44 47.72 18.44C48.83 18.44 49.84 19.05 50.36 20.03L95.38 105.75H0.0499878Z" fill="black" fill-opacity="0.88"/>
<path d="M55.78 65.54L38.43 32.68L0.0499878 105.75L55.78 65.54Z" fill="black" fill-opacity="0.9"/>
<path d="M95.39 105.75L83.03 29.29C82.84 28.19 82.06 27.29 81 26.95C79.94 26.61 78.78 26.89 77.99 27.68L0.0499878 105.75L43.17 129.93C45.88 131.44 49.18 131.44 51.88 129.93L95.39 105.75Z" fill="black"/>
<path d="M83.03 29.29C82.84 28.19 82.06 27.29 81 26.95C79.94 26.61 78.78 26.89 77.99 27.68L62.52 43.19L50.36 20.03C49.85 19.05 48.83 18.44 47.72 18.44C46.61 18.44 45.6 19.05 45.08 20.03L38.43 32.69L21.75 1.57C21.15 0.440003 19.88 -0.179997 18.62 0.040003C17.36 0.260003 16.37 1.26 16.18 2.52L0.05 105.75H0L0.05 105.81L0.47 106.02L77.96 28.44C78.75 27.65 79.91 27.36 80.98 27.7C82.05 28.04 82.83 28.94 83.01 30.05L95.26 105.82L95.38 105.75L83.03 29.29ZM0.19 105.61L16.18 3.26C16.37 1.99 17.36 0.990003 18.62 0.780003C19.88 0.570003 21.14 1.18 21.75 2.31L38.43 33.43L45.08 20.77C45.59 19.79 46.61 19.18 47.72 19.18C48.83 19.18 49.84 19.79 50.36 20.77L62.28 43.43L0.19 105.61Z" fill="white" fill-opacity="0.2"/>
<path opacity="0.2" d="M51.89 129.2C49.18 130.71 45.88 130.71 43.18 129.2L0.159998 105.09L0.0599976 105.75L43.18 129.93C45.89 131.44 49.19 131.44 51.89 129.93L95.39 105.75L95.28 105.06L51.89 129.2Z" fill="black"/>
</g>
<defs>
<clipPath id="clip0">
<rect width="95.39" height="131.07" fill="white"/>
</clipPath>
</defs>
</svg>
