<svg width="123" height="123" viewBox="0 0 123 123" fill="none" xmlns="http://www.w3.org/2000/svg">
<g clip-path="url(#clip0)">
<path d="M120.56 55.96L66.91 2.32C63.82 -0.769998 58.81 -0.769998 55.72 2.32L44.58 13.46L58.71 27.59C62 26.48 65.76 27.22 68.38 29.84C71.01 32.47 71.75 36.27 70.61 39.57L84.23 53.19C87.53 52.05 91.33 52.79 93.96 55.42C97.64 59.1 97.64 65.06 93.96 68.73C90.28 72.41 84.32 72.41 80.64 68.73C77.87 65.96 77.19 61.9 78.59 58.49L65.89 45.79V79.22C66.79 79.66 67.63 80.26 68.38 81C72.06 84.68 72.06 90.64 68.38 94.32C64.7 98 58.74 98 55.07 94.32C51.39 90.64 51.39 84.68 55.07 81C55.98 80.09 57.03 79.41 58.15 78.95V45.21C57.03 44.75 55.98 44.07 55.07 43.16C52.28 40.38 51.61 36.29 53.04 32.87L39.1 18.93L2.32 55.72C-0.769998 58.81 -0.769998 63.82 2.32 66.91L55.97 120.56C59.06 123.65 64.07 123.65 67.16 120.56L120.56 67.17C123.65 64.07 123.65 59.06 120.56 55.96Z" fill="black"/>
</g>
<defs>
<clipPath id="clip0">
<rect width="122.88" height="122.87" fill="white"/>
</clipPath>
</defs>
</svg>
