<svg width="256" height="131" viewBox="0 0 256 131" fill="none" xmlns="http://www.w3.org/2000/svg">
<path d="M63.1821 4.19979C64.1085 2.62488 65.3129 1.11173 67.0422 0.370597C67.7524 0.247075 68.4627 0.308836 69.1729 0.308836H104.13C103.111 1.17349 102.123 2.06903 101.443 3.24249C99.6521 6.17615 98.4477 9.44949 97.336 12.7228C94.1862 22.6046 91.9937 32.7643 89.8629 42.924C88.9056 47.5252 87.9792 52.1573 87.1146 56.7585C84.4588 71.8283 81.7105 86.8671 78.2827 101.782C76.646 108.669 74.9785 115.555 72.4463 122.194C71.2728 124.943 70.1302 127.877 67.876 129.915C67.351 130.378 66.826 130.965 66.0849 130.872H35.2043C33.1044 130.81 31.0354 130.995 28.9355 130.779C30.3252 129.698 31.5604 128.401 32.3633 126.857C34.6793 122.442 36.1307 117.655 37.5203 112.899C39.682 105.241 41.4113 97.49 43.048 89.739C44.067 84.6437 45.2714 79.5793 46.0125 74.4531C46.8463 68.7402 48.1124 63.0891 49.1314 57.407C50.7372 49.0384 52.4357 40.6698 54.3194 32.3629C55.8325 25.878 57.3766 19.4239 59.4456 13.0934C60.4646 10.0362 61.5763 7.00992 63.1821 4.19979Z" fill="black" stroke="black" stroke-width="0.09375"/>
<path d="M104.13 0.30883C105.026 0.30883 105.922 0.277949 106.817 0.30883C108.793 1.35877 110.461 3.02632 111.387 5.09532C112.623 7.44224 113.642 9.91269 114.568 12.4449C117.656 21.987 119.756 31.807 121.856 41.5962C123.647 50.3662 125.345 59.1672 126.951 67.9991C127.075 68.4623 126.92 69.1108 127.538 69.2343C125.315 80.8454 123.122 92.4874 120.343 104.006C118.83 110.213 117.224 116.389 114.939 122.38C113.703 125.375 112.437 128.649 109.812 130.779C108.145 131.15 106.941 129.884 105.922 128.741C104.161 126.487 103.08 123.831 102.031 121.175C98.5411 111.664 96.4103 101.752 94.2486 91.8697C92.612 84.1805 91.1606 76.4295 89.6474 68.7093C88.9681 64.7875 88.0417 60.9274 87.5167 57.0056C87.424 56.9438 87.2079 56.8203 87.1152 56.7585C87.9799 52.1573 88.9063 47.5252 89.8636 42.924C91.9944 32.7643 94.1869 22.6046 97.3367 12.7228C98.4484 9.44948 99.6528 6.17614 101.444 3.24248C102.123 2.06902 103.111 1.17349 104.13 0.30883Z" fill="black" fill-opacity="0.96" stroke="black" stroke-opacity="0.96" stroke-width="0.09375"/>
<path d="M142.762 5.65115C143.874 3.52039 145.233 1.14258 147.641 0.339687C159.901 0.277926 172.16 0.308807 184.42 0.308807C183.277 1.45139 182.073 2.59397 181.301 4.04536C178.923 8.30688 177.534 13.0316 176.113 17.6946C172.469 30.5409 169.906 43.6651 167.467 56.7894C165.212 69.7283 162.804 82.6673 160.055 95.5445C158.635 102.029 157.152 108.483 155.269 114.876C154.064 118.828 152.798 122.812 150.822 126.487C149.865 128.154 148.753 129.976 146.931 130.841C135.227 130.934 123.493 130.841 111.789 130.872C111.14 130.872 110.461 130.872 109.812 130.779C112.437 128.648 113.703 125.375 114.939 122.38C117.224 116.389 118.83 110.213 120.343 104.006C123.122 92.4873 125.315 80.8454 127.538 69.2343C130.225 54.2572 133.035 39.2801 136.617 24.4883C138.284 18.096 139.89 11.6111 142.762 5.65115Z" fill="black" stroke="black" stroke-width="0.09375"/>
<path d="M184.418 0.30883C185.406 0.30883 186.426 0.277949 187.414 0.30883C189.019 1.14261 190.162 2.56311 191.181 4.0145C192.849 6.67023 193.899 9.66565 194.979 12.5993C197.543 20.4738 199.457 28.5646 201.217 36.6553C203.564 47.5561 205.602 58.5187 207.61 69.4813C208.104 72.1062 208.598 74.7619 208.907 77.4176C209.03 77.5412 209.277 77.7882 209.37 77.8808C208.258 79.4249 207.826 81.2777 207.208 83.0379C205.263 89.3067 203.997 95.7916 202.916 102.246C202.082 107.31 200.939 112.344 199.364 117.223C198.191 120.836 196.771 124.418 194.424 127.444C193.312 128.896 191.799 130.007 190.131 130.748C187.568 131.026 186.055 128.556 184.82 126.734C182.257 122.256 180.867 117.254 179.385 112.374C174.506 94.3093 171.325 75.8118 167.897 57.4379C167.866 57.16 167.712 56.9129 167.465 56.7894C169.904 43.6652 172.467 30.5409 176.111 17.6946C177.532 13.0316 178.922 8.3069 181.299 4.04538C182.071 2.59399 183.276 1.45141 184.418 0.30883Z" fill="black" fill-opacity="0.96" stroke="black" stroke-opacity="0.96" stroke-width="0.09375"/>
<path d="M0.03125 70.5622C0.834145 70.5004 1.63704 70.3769 2.47082 70.3769H36.1306C37.5512 70.5622 39.0334 70.4387 40.3922 71.0563C42.3685 71.8592 44.1287 73.2179 45.4257 74.9163C45.5801 74.8237 45.858 74.5767 46.0124 74.4531C45.2713 79.5793 44.067 84.6437 43.0479 89.739C41.4112 97.49 39.6819 105.241 37.5203 112.899C36.1306 117.655 34.6793 122.442 32.3632 126.857C31.5603 128.402 30.3251 129.698 28.9355 130.779C28.4105 130.872 28.0091 130.501 27.5767 130.223C26.1253 129.297 25.2916 127.691 24.396 126.24C20.1654 116.605 19.7022 105.951 17.0773 95.8843C15.7495 90.8507 14.1128 85.8481 11.7041 81.216C10.2218 78.4367 8.39989 75.781 6.02208 73.6502C4.26189 72.2297 2.22377 71.0871 0.03125 70.5622Z" fill="black" fill-opacity="0.96" stroke="black" stroke-opacity="0.96" stroke-width="0.09375"/>
<path d="M212.089 73.7738C214.034 71.5812 216.937 70.1916 219.871 70.3151H245.193C248.713 70.3769 252.265 70.1916 255.785 70.4078C254.735 71.118 253.469 71.3959 252.357 71.9827C248.497 73.7429 245.193 76.6765 243.093 80.3513C239.727 86.2186 238.554 92.9506 237.565 99.559C236.577 106.044 236.608 112.745 234.508 119.045C233.088 123.461 230.926 127.907 227.189 130.81C215.578 130.934 203.967 130.841 192.387 130.872C191.615 130.872 190.874 130.903 190.133 130.748C191.8 130.007 193.314 128.896 194.425 127.444C196.772 124.418 198.193 120.836 199.366 117.223C200.941 112.344 202.084 107.31 202.917 102.246C203.998 95.7916 205.264 89.3067 207.21 83.0379C207.827 81.2777 208.26 79.4249 209.371 77.8809C210.298 76.5221 210.915 74.9472 212.089 73.7738Z" fill="black" stroke="black" stroke-width="0.09375"/>
</svg>
