<svg width="150" height="150" viewBox="0 0 150 150" fill="none" xmlns="http://www.w3.org/2000/svg">
<path d="M145.246 75.4578C142.007 96.0564 135.704 102.077 124.542 115.916C113.38 127.641 97.3239 147.218 74.5775 146.127C53.9789 142.887 47.9577 136.585 34.1197 125.423C22.3944 114.261 2.8169 98.2042 3.90845 75.4578C7.14789 54.8592 13.4507 48.838 24.6127 35C35.7746 23.2747 51.831 3.69719 74.5775 4.78874C95.1761 8.02818 101.197 14.331 115.035 25.493C126.761 36.6549 146.338 52.7113 145.246 75.4578Z" fill="black"/>
<path d="M45.8803 74.3662C43.3451 73.6267 41.6197 74.2606 40.8803 75.9859L35.8099 87.3943L30.8451 75.9859C30.1056 74.2606 28.3803 73.6267 25.8451 74.3662C24.7535 74.7183 24.2254 75.2817 24.2254 76.6197V89.8591H27.5704V76.6197L32.8169 88.1338C33.3803 89.507 34.2606 90.0352 35.9155 90.0352C37.5704 90.0352 38.3451 89.507 38.9789 88.1338L44.1549 76.6197V89.8591H47.5V76.6197C47.5 75.3521 46.9718 74.7183 45.8803 74.3662Z" fill="white"/>
<path d="M62.9225 87.7112C62.8521 87.7112 56.5845 87.7112 55.5986 87.7112C53.7324 87.676 53.6268 86.7253 53.6268 86.338V79.0845H50.2817C50.3873 79.1197 50.2817 86.3732 50.3169 86.5493C50.3169 88.2042 52.4296 89.7183 55.7746 89.7183H62.9225V90.5986C62.9225 90.9155 63.169 92.007 61.0211 92.2535H50.4225V94.507H60.9507C62.6408 94.507 66.2676 93.8732 66.2676 90.9507C66.2676 90.8803 66.2676 79.014 66.2676 79.014H62.9225V87.7112Z" fill="white"/>
<path d="M125.07 78.1338C124.824 77.8873 124.542 77.6761 124.331 77.3944C123.592 76.4085 122.676 75.493 121.69 74.7887C120.88 74.2254 119.049 73.4507 118.768 72.5C118.768 72.5 118.768 72.5 118.697 72.4296C119.261 72.3592 119.894 72.1831 120.493 72.0423C121.373 71.7958 122.148 71.8662 123.099 71.6549C123.486 71.5493 123.908 71.4085 124.296 71.3028C124.296 71.2324 124.296 71.1268 124.296 71.0563C123.838 70.5986 123.486 69.9648 123.028 69.5423C121.69 68.3803 120.246 67.2887 118.768 66.3732C117.958 65.8451 116.937 65.493 116.127 65.1056C115.845 64.9296 115.317 64.8592 115.141 64.6479C114.683 64.0845 114.401 63.3099 114.12 62.6761C113.38 61.2324 112.676 59.6831 111.972 58.169C111.514 57.1831 111.232 56.162 110.634 55.2465C107.993 50.8803 105.106 48.2042 100.669 45.6338C99.6831 45.1056 98.5916 44.8944 97.3944 44.6127C96.7606 44.6127 96.1268 44.5423 95.493 44.507C95.1056 44.331 94.6831 43.8028 94.2958 43.5916C92.8521 42.6761 89.0493 40.669 87.9578 43.3099C87.2535 44.9648 88.9789 46.6549 89.5775 47.4648C90.0352 48.0282 90.5634 48.7324 90.9155 49.3662C91.0916 49.8239 91.162 50.2817 91.3028 50.7394C91.6901 51.9014 92.1127 53.0986 92.6409 54.1901C92.9225 54.7183 93.2042 55.2817 93.6268 55.8099C93.8732 56.0916 94.1902 56.1972 94.2606 56.6901C93.9085 57.2183 93.8733 57.9577 93.6972 58.5915C92.7817 61.4789 93.1338 65.1056 94.4366 67.2183C94.824 67.8521 95.8099 69.2958 97.1479 68.7324C98.3099 68.2746 98.0634 66.831 98.3451 65.493C98.4155 65.2113 98.3451 64.9648 98.5211 64.7887V64.8592C98.8732 65.5634 99.2254 66.3028 99.5423 67.007C100.352 68.2747 101.725 69.6127 102.887 70.4578C103.521 70.9155 103.979 71.7254 104.789 72.007V71.9366C104.789 71.9366 104.789 71.9366 104.718 71.9366C104.542 71.6901 104.331 71.5845 104.155 71.4085C103.697 70.9507 103.169 70.3873 102.817 69.8592C101.725 68.4155 100.81 66.7958 99.9296 65.1761C99.5423 64.3662 99.1902 63.5211 98.838 62.7113C98.662 62.4296 98.662 61.9718 98.4507 61.7958C98.0634 62.3592 97.4648 62.8169 97.2535 63.5211C96.7958 64.6127 96.7254 65.9859 96.5493 67.3944C96.4437 67.3944 96.4789 67.3944 96.4437 67.4648C95.6338 67.2183 95.3521 66.4437 95 65.669C94.2606 63.838 94.0845 60.8803 94.7535 58.8028C94.9296 58.2746 95.7394 56.5493 95.3873 56.0211C95.2113 55.5634 94.6831 55.2817 94.4014 54.8592C94.0493 54.4014 93.6972 53.7676 93.4859 53.2042C92.8521 51.7606 92.5704 50.1408 91.8662 48.6972C91.5845 47.993 90.9859 47.3239 90.5986 46.7254C90.1409 46.0211 89.5775 45.5282 89.1549 44.7183C89.0493 44.4366 88.8732 43.9789 89.0493 43.6972C89.1197 43.4507 89.2254 43.4155 89.4014 43.3451C89.7535 43.0634 90.669 43.4155 91.0211 43.5916C92.0071 43.9789 92.7465 44.331 93.5564 44.8592C93.9085 45.1056 94.2958 45.5986 94.7535 45.7394C94.9296 45.7394 95.1056 45.7394 95.2817 45.7394C96.0916 45.9155 97.007 45.8099 97.8169 46.0211C99.1901 46.4789 100.423 47.1127 101.514 47.8169C104.859 49.9648 107.676 52.993 109.507 56.6197C109.789 57.1831 109.965 57.7817 110.211 58.3451C110.739 59.6127 111.408 60.8803 111.937 62.1479C112.465 63.3451 112.958 64.5775 113.768 65.5986C114.155 66.1268 115.669 66.4085 116.408 66.6901C116.937 66.9366 117.746 67.1479 118.204 67.3944C119.085 67.9225 119.93 68.5563 120.81 69.1197C121.127 69.4366 122.465 70.0704 122.535 70.5986C120.458 70.5282 118.908 70.7747 117.535 71.3028C117.148 71.4789 116.549 71.4789 116.514 71.9366C116.761 72.1831 116.761 72.4648 116.901 72.7465C117.183 73.2747 117.782 73.9437 118.239 74.2958C118.768 74.6831 119.331 75.1056 119.894 75.493C120.88 76.1268 122.042 76.4789 122.993 77.1127C123.556 77.4648 124.155 77.9225 124.648 78.3099C124.93 78.5563 125.106 78.838 125.458 79.0141V78.9437C125.282 78.6972 125.211 78.3803 125.07 78.1338Z" fill="white"/>
<path d="M95.2817 48.4155C95.2817 48.4155 95.2817 48.4155 95.2817 48.4859C95.2817 48.4859 95.2817 48.4859 95.3521 48.4859C95.5986 48.8732 95.9155 49.1901 96.162 49.507C96.4085 49.8944 96.5493 50.3169 96.7254 50.7042L96.7958 50.6338C97.1479 50.3873 97.3239 49.9296 97.3239 49.3662C97.1479 49.1901 97.1479 49.0141 97.0423 48.838C96.831 48.5915 96.4789 48.4859 96.3028 48.3098C95.8451 48.3098 95.5634 48.3803 95.2817 48.4155Z" fill="white"/>
<path d="M71.7606 74.6831C69.7887 75.3169 68.8732 76.3028 68.8732 78.0282V79.8592C68.8732 81.3733 70.5282 82.6761 73.4155 82.9578C73.6972 82.9578 74.0493 82.9578 74.4014 82.9578H77.8521C77.9578 82.9578 78.0986 82.9578 78.2042 82.9578C79.2254 83.0634 79.7183 83.2394 80.0352 83.662C80.2817 83.9085 80.2817 84.0493 80.2817 84.2958V86.2676C80.2817 86.5141 80.1056 86.7958 79.8239 87.0775C79.5423 87.3592 79.0141 87.5352 78.3803 87.5352C78.2747 87.5352 78.1338 87.5352 78.0282 87.5352H68.8028V89.8592H68.838H78.5211C79.6831 89.8592 80.7042 89.6127 81.6197 89.2254C83.0634 88.5211 83.7676 87.6761 83.7676 86.4437V83.9789C83.7676 82.993 82.9578 82.1479 81.4085 81.5141C80.5986 81.2324 79.5775 81.0563 78.5211 81.0563H74.4718C73.0986 81.0563 72.4648 80.669 72.2887 79.7183C72.2887 79.6127 72.2887 79.4718 72.2887 79.4366V77.9226C72.2887 77.8521 72.2887 77.7465 72.2887 77.6409C72.4648 76.9366 72.8169 76.7606 74.0141 76.6549C74.1197 76.6549 74.2606 76.6549 74.2958 76.6549H83.8732V74.4014H74.4718C73.0986 74.4014 72.3944 74.4719 71.7606 74.6831Z" fill="white"/>
<path d="M108.063 85.8803V74.3662H104.718L104.648 85.9155C104.648 88.2042 106.373 89.4718 109.824 89.7183C110.176 89.7183 110.458 89.7888 110.81 89.7888H119.577V87.5352H110.775C108.803 87.5352 108.063 87.0775 108.063 85.8803Z" fill="white"/>
<path d="M102.641 86.0563V78.0986C102.641 76.0916 101.268 74.8592 98.4507 74.4718C98.0986 74.4014 97.8169 74.4014 97.4648 74.4014H91.0563C90.7746 74.4014 90.4225 74.4718 90.1408 74.4718C87.3239 74.824 85.8803 76.0916 85.8803 78.0986V86.0563C85.8803 87.8873 86.9014 89.0493 89.1901 89.6479C89.8944 89.8239 90.5986 89.8944 91.162 89.8944H94.7183L97.4296 89.7183L100.07 92.1479H103.944L100.669 89.1549C102.077 88.5915 102.641 87.7113 102.641 86.0563ZM99.4014 78.2747V85.8803C99.4014 85.9859 99.4014 86.1268 99.4014 86.2324C99.2606 86.6901 98.9789 87.0775 98.5211 87.3239L96.0915 85.1409H92.2183L95 87.6761H91.9366C90.5986 87.6761 89.7535 87.1479 89.5775 86.2324C89.5775 86.1268 89.507 85.9859 89.507 85.8803V78.2747C89.507 77.2535 90.4577 76.6197 91.9718 76.6197H97.0422C98.3803 76.6197 99.2253 77.1127 99.4014 77.993C99.4014 78.0282 99.4014 78.169 99.4014 78.2747Z" fill="white"/>
<path d="M124.014 89.1549L123.38 87.6056H122.676V89.8591H123.134V88.1338L123.768 89.8591H124.12L124.754 88.1338L124.824 89.8591H125.282V87.6056H124.577L124.014 89.1549Z" fill="white"/>
<path d="M120.387 87.9577H121.092V89.8591H121.549V87.9577H122.183V87.5704H120.387V87.9577Z" fill="white"/>
</svg>
