<svg width="109" height="123" viewBox="0 0 109 123" fill="none" xmlns="http://www.w3.org/2000/svg">
<g clip-path="url(#clip0)">
<path fill-rule="evenodd" clip-rule="evenodd" d="M68.43 87.08C48.73 87.08 44.6 78.04 44.6 70.45C44.6 69.73 45.18 69.15 45.9 69.15H51.72C52.36 69.15 52.9 69.62 53 70.25C53.88 76.18 56.49 79.17 68.41 79.17C77.9 79.17 81.93 77.03 81.93 71.99C81.93 69.09 80.78 66.94 66.04 65.5C53.71 64.28 46.09 61.57 46.09 51.7C46.09 42.62 53.75 37.21 66.59 37.21C81.01 37.21 88.15 42.21 89.05 52.97C89.08 53.34 88.95 53.7 88.7 53.97C88.45 54.23 88.1 54.39 87.74 54.39H81.9C81.29 54.39 80.76 53.96 80.64 53.38C79.23 47.15 75.83 45.15 66.57 45.15C56.21 45.15 55.01 48.76 55.01 51.46C55.01 54.74 56.43 55.7 70.41 57.55C84.25 59.39 90.82 61.98 90.82 71.71C90.82 81.52 82.64 87.14 68.37 87.14L68.43 87.08ZM54.52 122.88C52.87 122.88 51.24 122.45 49.8 121.62L34.77 112.72C32.52 111.46 33.62 111.02 34.36 110.76C37.35 109.71 37.96 109.48 41.16 107.66C41.5 107.47 41.94 107.54 42.28 107.74L53.83 114.59C54.25 114.82 54.84 114.82 55.23 114.59L100.26 88.6C100.68 88.36 100.95 87.88 100.95 87.38V35.43C100.95 34.91 100.68 34.45 100.25 34.19L55.23 8.22C54.81 7.97 54.26 7.97 53.84 8.22L8.84 34.19C8.4 34.44 8.13 34.92 8.13 35.42V87.38C8.13 87.88 8.4 88.35 8.83 88.59L21.16 95.71C27.85 99.06 31.95 95.11 31.95 91.15V39.86C31.95 39.13 32.52 38.56 33.26 38.56H38.96C39.67 38.56 40.26 39.12 40.26 39.86V91.17C40.26 100.1 35.39 105.22 26.93 105.22C24.33 105.22 22.27 105.22 16.55 102.4L4.72 95.59C1.8 93.9 0 90.75 0 87.38V35.42C0 32.04 1.8 28.88 4.72 27.21L49.79 1.21C52.64 -0.399998 56.43 -0.399998 59.26 1.21L104.28 27.22C107.19 28.9 109 32.04 109 35.43V87.39C109 90.76 107.19 93.9 104.28 95.6L59.26 121.6C57.82 122.43 56.18 122.86 54.52 122.86V122.88Z" fill="black"/>
</g>
<defs>
<clipPath id="clip0">
<rect width="109" height="122.88" fill="white"/>
</clipPath>
</defs>
</svg>
